<?xml version="1.0" encoding="UTF-8"?>
<!DOCTYPE svg PUBLIC "-//W3C//DTD SVG 1.1//EN" "http://www.w3.org/Graphics/SVG/1.1/DTD/svg11.dtd">
<!-- Creator: CorelDRAW 2020 (64-Bit) -->
<svg xmlns="http://www.w3.org/2000/svg" xml:space="preserve" width="36.7469mm" height="38.4596mm" version="1.1" style="shape-rendering:geometricPrecision; text-rendering:geometricPrecision; image-rendering:optimizeQuality; fill-rule:evenodd; clip-rule:evenodd"
viewBox="0 0 24.74 25.89"
 xmlns:xlink="http://www.w3.org/1999/xlink"
 xmlns:xodm="http://www.corel.com/coreldraw/odm/2003">
 <defs>
  <style type="text/css">
   <![CDATA[
    .fil0 {fill:#FEFEFE;fill-rule:nonzero}
   ]]>
  </style>
 </defs>
 <g id="Шар_x0020_1">
  <metadata id="CorelCorpID_0Corel-Layer"/>
  <g id="_2916635733744">
   <path class="fil0" d="M7.15 25.88l-0.01 0 0 -0.83 -7.13 0 -0 -0.84 0 0 7.13 0 0.01 0 0 1.66zm-7.14 -2.5l-0 -0.84 0 0 7.13 0 0.01 0 0 0.84 -0.01 0 -7.13 0 -0 0zm-0 -1.68l-0 -0.84 0 0 7.13 0 0.01 0 0 0.84 -0.01 0 -7.13 0 -0 0zm-0 -1.68l-0.01 -20.01 6.73 0c-0.9,0.05 -1.73,0.26 -2.51,0.62 -0.9,0.42 -1.65,0.99 -2.26,1.71 -0.61,0.72 -1.08,1.56 -1.41,2.53 -0.34,0.96 -0.5,1.99 -0.5,3.07l0.84 0c0,-1.31 0.25,-2.5 0.74,-3.56 0.49,-1.07 1.22,-1.92 2.19,-2.57 0.96,-0.64 2.07,-0.96 3.33,-0.97l0 0.84c-0.84,0 -1.6,0.17 -2.28,0.49 -0.69,0.33 -1.26,0.78 -1.72,1.34 -0.45,0.57 -0.81,1.23 -1.05,1.99 -0.25,0.76 -0.37,1.57 -0.37,2.43 0,0.86 0.12,1.67 0.37,2.43 0.25,0.76 0.6,1.42 1.05,1.99 0.45,0.57 1.03,1.01 1.72,1.34 0.68,0.33 1.44,0.49 2.28,0.49l0 0.83c-1.26,-0 -2.37,-0.32 -3.33,-0.97 -0.97,-0.64 -1.7,-1.5 -2.19,-2.57 -0.49,-1.07 -0.74,-2.25 -0.74,-3.56l-0.84 0c0,1.08 0.17,2.11 0.5,3.07 0.33,0.97 0.8,1.81 1.41,2.53 0.6,0.72 1.36,1.29 2.26,1.71 0.89,0.42 1.87,0.63 2.93,0.63l0 4.15 -0.01 0 -7.13 0 -0 0zm7.14 -17.51l0 0.84c-0.8,0 -1.49,0.21 -2.07,0.63 -0.58,0.42 -1.01,0.97 -1.27,1.65 -0.27,0.68 -0.4,1.45 -0.4,2.31 0,0.86 0.13,1.63 0.4,2.31 0.27,0.68 0.69,1.23 1.27,1.65 0.58,0.42 1.27,0.63 2.07,0.63l0 0.84c-0.72,-0 -1.37,-0.14 -1.95,-0.42 -0.59,-0.28 -1.08,-0.67 -1.45,-1.17 -0.38,-0.5 -0.67,-1.07 -0.87,-1.72 -0.2,-0.65 -0.3,-1.35 -0.3,-2.11 0,-0.75 0.1,-1.46 0.3,-2.11 0.2,-0.65 0.49,-1.23 0.87,-1.72 0.38,-0.5 0.86,-0.89 1.45,-1.17 0.58,-0.28 1.23,-0.42 1.95,-0.42zm0 1.68l0 0.84c-1.38,0.01 -2.07,0.98 -2.07,2.91 0,1.93 0.69,2.9 2.07,2.91l0 0.84c-0.97,-0.01 -1.7,-0.35 -2.18,-1.04 -0.49,-0.7 -0.73,-1.6 -0.73,-2.71 0,-1.11 0.24,-2.01 0.73,-2.71 0.48,-0.69 1.21,-1.03 2.18,-1.04zm0 1.68l0 4.14c-0.21,-0 -0.4,-0.04 -0.55,-0.11 -0.16,-0.07 -0.28,-0.17 -0.37,-0.29 -0.09,-0.12 -0.15,-0.27 -0.2,-0.46 -0.05,-0.19 -0.08,-0.37 -0.09,-0.55 -0.01,-0.18 -0.02,-0.4 -0.02,-0.66 0,-0.26 0.01,-0.48 0.02,-0.67 0.01,-0.18 0.04,-0.36 0.09,-0.55 0.05,-0.19 0.12,-0.34 0.2,-0.46 0.09,-0.12 0.21,-0.21 0.37,-0.29 0.15,-0.07 0.34,-0.11 0.55,-0.11z"/>
   <path class="fil0" d="M19.71 17.95c0,1.94 -0.7,2.91 -2.1,2.91l-10.48 0 0 -0.84 10.48 0c0.23,0 0.42,-0.04 0.58,-0.11 0.16,-0.07 0.28,-0.17 0.37,-0.29 0.09,-0.12 0.15,-0.27 0.2,-0.46 0.05,-0.19 0.08,-0.37 0.09,-0.55 0.01,-0.18 0.02,-0.4 0.02,-0.66 0,-0.26 -0.01,-0.49 -0.02,-0.66 -0.01,-0.18 -0.04,-0.36 -0.09,-0.55 -0.05,-0.19 -0.12,-0.34 -0.2,-0.46 -0.09,-0.12 -0.21,-0.21 -0.37,-0.29 -0.16,-0.07 -0.35,-0.11 -0.58,-0.11l-10.48 0 0 -0.84 10.48 0c1.4,0 2.1,0.97 2.1,2.91zm0 -3.96c0.58,0.42 1.01,0.97 1.27,1.65 0.27,0.68 0.4,1.45 0.4,2.31 0,0.86 -0.13,1.63 -0.4,2.31 -0.27,0.68 -0.69,1.23 -1.27,1.65 -0.58,0.42 -1.28,0.63 -2.1,0.63l-10.48 0 0 -0.84 10.48 0c0.99,0 1.72,-0.35 2.21,-1.04 0.48,-0.69 0.73,-1.6 0.73,-2.71 0,-1.11 -0.24,-2.01 -0.73,-2.71 -0.49,-0.69 -1.22,-1.04 -2.21,-1.04l-10.48 0 0 -0.84 10.48 0c0.81,0 1.51,0.21 2.1,0.63zm0.21 -1.81c0.69,0.33 1.26,0.78 1.72,1.34 0.45,0.57 0.8,1.23 1.05,1.99 0.25,0.76 0.37,1.57 0.37,2.43 0,0.86 -0.12,1.67 -0.37,2.43 -0.25,0.76 -0.6,1.42 -1.05,1.99 -0.45,0.57 -1.03,1.01 -1.72,1.34 -0.69,0.33 -1.46,0.49 -2.3,0.49l-10.48 0 0 -0.84 10.48 0c0.73,0 1.39,-0.14 1.98,-0.43 0.59,-0.28 1.07,-0.67 1.46,-1.17 0.38,-0.5 0.67,-1.07 0.87,-1.72 0.2,-0.65 0.3,-1.35 0.3,-2.11 0,-0.75 -0.1,-1.46 -0.3,-2.11 -0.2,-0.65 -0.49,-1.23 -0.87,-1.72 -0.38,-0.5 -0.87,-0.89 -1.46,-1.17 -0.59,-0.28 -1.25,-0.42 -1.98,-0.42l-10.48 0 0 -0.84 10.48 0c0.85,0 1.61,0.16 2.3,0.49zm-2.3 -2.17c0.23,0 0.42,-0.04 0.58,-0.11 0.16,-0.07 0.28,-0.17 0.37,-0.29 0.09,-0.12 0.15,-0.27 0.2,-0.46 0.05,-0.19 0.08,-0.37 0.09,-0.55 0.01,-0.18 0.02,-0.4 0.02,-0.66 0,-0.26 -0.01,-0.48 -0.02,-0.66 -0.01,-0.18 -0.04,-0.36 -0.09,-0.55 -0.05,-0.19 -0.12,-0.34 -0.2,-0.46 -0.09,-0.12 -0.21,-0.21 -0.37,-0.29 -0.16,-0.07 -0.35,-0.11 -0.58,-0.11l-10.48 0 0 -0.84 10.48 0c1.4,0 2.1,0.97 2.1,2.91 0,0.99 -0.19,1.73 -0.56,2.22 0.26,0.05 0.54,0.13 0.84,0.23 0.37,-0.63 0.56,-1.45 0.56,-2.46 0,-1.11 -0.24,-2.01 -0.73,-2.71 -0.49,-0.69 -1.22,-1.04 -2.21,-1.04l-10.48 0 0 -0.84 10.48 0c0.81,0 1.51,0.21 2.1,0.63 0.58,0.42 1.01,0.97 1.27,1.65 0.27,0.68 0.4,1.45 0.4,2.31 0,1.09 -0.21,2.02 -0.64,2.78 0.26,0.14 0.5,0.28 0.72,0.42 0.5,-0.9 0.76,-1.97 0.76,-3.2 0,-0.75 -0.1,-1.46 -0.3,-2.11 -0.2,-0.65 -0.49,-1.23 -0.87,-1.72 -0.38,-0.5 -0.87,-0.89 -1.46,-1.17 -0.59,-0.28 -1.25,-0.42 -1.98,-0.42l-10.48 0 0 -0.84 10.48 0c0.85,0 1.61,0.16 2.3,0.49 0.69,0.33 1.26,0.78 1.72,1.34 0.45,0.57 0.8,1.23 1.05,1.99 0.25,0.76 0.37,1.57 0.37,2.43 0,1.41 -0.31,2.65 -0.93,3.71 0.25,0.22 0.45,0.42 0.61,0.59 0.78,-1.23 1.16,-2.66 1.16,-4.31 0,-1.31 -0.25,-2.5 -0.74,-3.57 -0.5,-1.07 -1.23,-1.92 -2.19,-2.57 -0.97,-0.64 -2.08,-0.97 -3.35,-0.97l-10.48 0 0 -0.84 10.48 0c1.07,0 2.06,0.21 2.96,0.63 0.9,0.42 1.65,0.99 2.26,1.71 0.61,0.72 1.07,1.56 1.41,2.53 0.33,0.97 0.5,1.99 0.5,3.08 0,1.92 -0.49,3.59 -1.45,5.01 0.97,1.41 1.45,3.08 1.45,5.01 0,1.09 -0.17,2.11 -0.5,3.08 -0.33,0.97 -0.8,1.81 -1.41,2.53 -0.61,0.72 -1.36,1.29 -2.26,1.71 -0.9,0.42 -1.89,0.63 -2.96,0.63l-10.48 0 0 -0.84 10.48 0c1.27,0 2.39,-0.32 3.36,-0.97 0.97,-0.64 1.7,-1.5 2.19,-2.57 0.49,-1.07 0.74,-2.26 0.74,-3.57 0,-0.95 -0.17,-1.87 -0.5,-2.75 -0.33,-0.88 -0.78,-1.63 -1.34,-2.27 -0.56,-0.64 -1.23,-1.14 -2.01,-1.52 -0.78,-0.38 -1.59,-0.56 -2.43,-0.56l-10.48 0 0 -0.84 10.48 0z"/>
  </g>
 </g>
</svg>
